<svg class="svg-icon" style="width: 1em; height: 1em;vertical-align: middle;fill: currentColor;overflow: hidden;" viewBox="0 0 1024 1024" version="1.1" xmlns="http://www.w3.org/2000/svg"><path d="M320 463.68V352h96a64 64 0 0 0 0-128h-96V143.68a64 64 0 0 0-128 0V224H96a64 64 0 0 0 0 128h96v111.68a64 64 0 0 0 128 0zM928 736H608a64 64 0 0 0 0 128h320a64 64 0 0 0 0-128zM791.68 198.08a61.44 61.44 0 0 0-66.24-61.76 64 64 0 0 0-55.04 32L241.92 853.12a64 64 0 0 0 55.36 98.56 67.2 67.2 0 0 0 56.96-32L779.52 237.44a74.88 74.88 0 0 0 12.16-39.36z" fill="#231F20" /></svg>